<?xml version="1.0" encoding="UTF-8"?>
<svg width="64" height="64" viewBox="512 320 64 64" xmlns="http://www.w3.org/2000/svg">
  <path d=" M 518.79 328.85 C 530.22 328.93 541.66 328.78 553.08 328.96 C 555.57 328.78 556.94 331.15 558.51 332.65 C 555.14 339.96 551.27 347.02 546.89 353.77 C 553.20 359.32 559.94 364.45 565.37 370.93 C 563.55 372.86 561.73 374.79 559.93 376.73 C 554.57 370.25 548.63 364.27 542.39 358.64 C 535.65 366.12 527.79 372.74 518.56 376.93 C 517.22 374.82 515.90 372.71 514.59 370.59 C 523.77 365.95 532.56 360.11 539.03 351.99 C 543.03 346.85 547.01 341.53 549.35 335.39 C 539.17 335.31 528.99 335.50 518.81 335.36 C 518.80 333.19 518.79 331.02 518.79 328.85 Z" fill="#f1f4f1" opacity="1.00"/>
</svg>
